# xmcd
# 
# Track frame offsets:
#     150
#     13090
#     25452
#     40065
#     58925
#     75795
#     87612
#     101027
#     109905
#     122555
#     137325
#     146730
#     159142
#     171875
#     182642
#     198365
#     210452
#     221427
#     232757
#     263692
#     280612
#     296987
# 
# Disc length: 4160
# 
# Revision: 9
# Processed by: cddbd v1.5.2PL0 Copyright (c) Steve Scherf et al.
# Submitted via: BonkEnc v1.0.8
# 
DISCID=31103e16
DTITLE=Various Artist - The Ultimate Soul Collection Vol. 2 [2]
DYEAR=0
DGENRE=
TTITLE0=Smokey Robinson and The Miracles - The Tracks Of My Tears
TTITLE1=James Brown - Please Please Please
TTITLE2=Otis Redding - I've Been Loving You Too Long
TTITLE3=The Detroit Spinners - Could It Be I'm Falling In Love
TTITLE4=Gladys Knight and The Pips - Best Thing That Ever Happened To Me
TTITLE5=The Drifters - Up On The Roof
TTITLE6=Wilson Pickett - 634-5789
TTITLE7=Solomon Burke - Got To Get You Off My Mind
TTITLE8=Percy Sledge - It Tears Me Up
TTITLE9=Sam and Dave - When Something Is Wrong With My Baby
TTITLE10=Bill Withers - Ain't No Sunshine
TTITLE11=Aretha Franklin - (You Make Me Feel Like) A Natural Woman
TTITLE12=The Impressions - I'm So Proud
TTITLE13=The Tams - Hey Girl Don't Bother Me
TTITLE14=The Staple Singers - Respect Yourself
TTITLE15=Chairmen Of The Board - Give Me Just A Little More Time
TTITLE16=Don Covay - Mercy Mercy
TTITLE17=Booker T and The MGs - Soul Dressing
TTITLE18=Donny Hathaway - The Ghetto
TTITLE19=William De Vaughn - Be Thankful For What You've Got
TTITLE20=The Chi-lites - Oh Girl
TTITLE21=Minnie Riperton - Lovin' You
EXTD=
EXTT0=
EXTT1=
EXTT2=
EXTT3=
EXTT4=
EXTT5=
EXTT6=
EXTT7=
EXTT8=
EXTT9=
EXTT10=
EXTT11=
EXTT12=
EXTT13=
EXTT14=
EXTT15=
EXTT16=
EXTT17=
EXTT18=
EXTT19=
EXTT20=
EXTT21=
PLAYORDER=
